<svg version="1.1" id="Layer_1" xmlns="http://www.w3.org/2000/svg" xmlns:xlink="http://www.w3.org/1999/xlink" x="0px" y="0px"
	 width="100%" viewBox="0 0 1024 704" enable-background="new 0 0 1024 704" xml:space="preserve">
<path fill="#000000" opacity="1.000000" stroke="none" 
	d="
M450.914856,255.125153 
	C440.190918,246.639114 429.647247,238.490936 419.369263,230.020401 
	C415.858978,227.127441 413.342407,227.632492 410.372467,230.517181 
	C400.088623,240.505814 390.217072,250.860107 381.400635,262.188416 
	C378.641479,265.733673 375.995911,269.395508 372.949615,272.680603 
	C370.371002,275.461395 370.722015,277.828094 372.646606,280.662903 
	C378.153900,288.774841 384.140869,296.510071 389.200195,304.991394 
	C398.957703,321.348602 406.976013,338.489197 414.560638,355.884399 
	C416.152130,359.534515 417.722229,363.185150 421.921967,366.789459 
	C414.266571,366.789459 407.795654,366.973236 401.338257,366.755859 
	C379.739105,366.028778 358.853119,361.178864 338.063293,355.706818 
	C325.377014,352.367706 313.011841,353.945618 300.887512,358.743378 
	C296.491608,360.482910 293.341217,363.009430 292.660492,367.826324 
	C292.144196,371.479858 290.171692,372.159271 286.733795,372.010559 
	C278.633850,371.660156 271.480621,368.948303 264.798676,364.582642 
	C261.585419,362.483246 259.461731,359.508087 258.174500,356.042389 
	C246.957001,325.840027 242.095642,294.543488 243.965729,262.459869 
	C245.951675,228.388428 254.058014,195.523026 269.826904,165.233292 
	C278.376984,148.809845 288.344330,132.907883 300.793610,118.816689 
	C317.695038,99.686104 335.588104,81.744980 357.062408,67.637924 
	C388.142303,47.220718 421.635956,32.642624 458.075256,24.907255 
	C494.922943,17.085205 531.781128,17.618523 568.741272,24.088820 
	C595.898010,28.842911 621.563049,38.035191 645.796265,50.840073 
	C679.612427,68.708641 708.777954,92.519348 732.734253,122.494377 
	C761.298645,158.235245 781.481018,197.902954 788.756653,243.464050 
	C792.340088,265.904114 792.609497,288.412048 790.709290,311.137329 
	C788.275879,340.239624 779.249939,367.063354 766.337708,392.914429 
	C764.041077,397.512573 761.203247,400.531860 756.108521,402.143158 
	C748.689819,404.489471 740.913513,406.039001 734.181641,410.304565 
	C732.857056,411.143890 731.674011,410.703522 730.646973,409.557037 
	C717.521729,394.905182 700.474548,389.036774 681.451172,387.193909 
	C663.555725,385.460297 645.689697,383.939667 627.667664,384.052704 
	C612.860046,384.145569 598.115906,382.268097 583.366150,380.945190 
	C572.755676,379.993500 562.137146,379.130981 551.526611,378.179993 
	C549.635559,378.010529 547.379089,378.354431 546.662109,375.791718 
	C546.823547,375.417389 546.912903,374.885956 547.085022,374.857666 
	C556.224548,373.354645 563.839600,367.722412 572.720093,365.454529 
	C578.084717,364.084503 578.473755,361.751160 574.329285,358.004974 
	C559.626343,344.715027 544.406860,332.034485 529.112244,319.432495 
	C510.867279,304.399597 492.905914,289.022980 474.709076,273.931061 
	C467.020508,267.554443 459.044556,261.524323 450.914856,255.125153 
M722.101074,281.451202 
	C719.234924,279.469635 716.504761,277.246185 713.480530,275.545776 
	C693.899414,264.535828 674.233459,253.655197 653.709229,244.484528 
	C628.954407,233.423584 604.302795,222.147095 579.776062,210.590714 
	C552.642334,197.805939 526.296753,183.577438 501.137726,167.249771 
	C496.198639,164.044434 492.569000,164.728958 488.128784,167.696808 
	C470.546082,179.449219 453.289764,191.625198 437.158661,205.335999 
	C435.650269,206.618103 433.964874,207.755417 433.681519,210.181183 
	C434.468689,210.915070 435.257172,211.753571 436.147522,212.464462 
	C446.293274,220.564743 456.559326,228.517929 466.593628,236.753616 
	C511.501831,273.612122 556.082275,310.855804 599.990051,348.912354 
	C611.466370,358.859314 624.009583,366.057465 640.867981,358.626465 
	C652.289429,353.591980 665.386414,354.435150 677.712219,356.374603 
	C685.526489,357.604156 693.037964,360.803833 700.655823,363.213013 
	C703.626282,364.152435 706.537476,364.377014 709.446167,363.201843 
	C719.310425,359.216522 729.027893,360.360840 738.620300,364.105499 
	C746.217896,367.071472 750.428101,365.413940 753.085754,357.457611 
	C756.853882,346.176971 758.308411,334.450317 758.646912,322.597443 
	C758.933411,312.570953 754.743347,305.120880 746.763916,298.746613 
	C739.054688,292.588135 730.926819,287.196228 722.101074,281.451202 
M751.439392,235.137939 
	C748.591064,225.929535 746.417297,216.526428 743.070129,207.457382 
	C735.157715,186.018814 722.359985,167.443634 710.079346,148.388565 
	C696.787964,127.765190 677.641174,119.310913 654.733459,117.014961 
	C640.929321,115.631416 627.177673,117.892464 613.510254,119.779587 
	C582.911377,124.004509 554.224182,134.601227 525.957275,146.507645 
	C524.211548,147.242966 522.119812,147.853531 521.559753,150.280151 
	C522.784485,152.843658 525.311707,153.960953 527.508240,155.367447 
	C545.882507,167.132568 564.950439,177.732681 584.432983,187.479065 
	C613.888000,202.214233 643.727722,216.178711 673.349792,230.582138 
	C690.684937,239.011154 708.014832,247.456711 724.522461,257.480469 
	C730.622131,261.184326 736.448669,265.389740 743.046265,268.231079 
	C748.848389,270.729828 751.772034,269.408569 753.645081,263.445099 
	C754.184082,261.728790 754.394775,259.969238 754.416992,258.091980 
	C754.506226,250.560959 753.018250,243.270950 751.439392,235.137939 
M480.609894,120.858765 
	C484.382538,124.409851 488.635559,127.326653 492.799835,130.384186 
	C495.302185,132.221497 497.152618,132.377106 499.944824,131.007690 
	C522.089111,120.147102 544.655701,110.315895 568.543518,103.835297 
	C586.218872,99.040115 604.031677,94.883682 622.093933,91.791397 
	C625.009766,91.292198 628.762756,91.412224 629.439087,87.119202 
	C630.199524,82.291718 627.414551,80.099861 623.431824,78.213860 
	C595.586182,65.027954 566.183838,57.138721 535.651855,54.563538 
	C504.056213,51.898636 472.808777,55.062962 442.498810,65.193817 
	C432.397736,68.570023 431.770325,70.484398 438.417480,78.907539 
	C450.646515,94.403862 464.482544,108.278061 480.609894,120.858765 
M445.800903,165.286407 
	C454.315155,158.691116 463.310394,152.763046 472.482147,146.823425 
	C471.803223,145.760376 471.541779,145.129593 471.093384,144.689087 
	C469.551331,143.174072 467.981049,141.683304 466.355774,140.258224 
	C447.573059,123.789162 428.949158,107.204758 414.595520,86.434303 
	C408.141418,77.094841 409.028198,78.135590 400.149658,82.756523 
	C397.795593,83.981735 395.279938,84.906189 392.965790,86.196968 
	C373.187286,97.229004 355.877197,111.472565 339.950928,127.440247 
	C336.843475,130.555786 333.792633,133.894714 331.606110,138.164459 
	C336.843567,142.630707 342.751953,145.708755 348.231689,149.413208 
	C367.533447,162.461731 386.686707,175.734711 405.288574,189.763000 
	C409.323242,192.805664 412.076813,192.514435 415.583191,189.374084 
	C425.010040,180.931290 435.028229,173.207047 445.800903,165.286407 
M368.920349,192.602692 
	C352.754944,181.442383 336.663422,170.175583 319.768860,160.110107 
	C316.701965,158.282898 315.101288,158.663910 312.797699,161.528824 
	C309.118256,166.104874 305.927917,170.953903 303.021912,175.989471 
	C298.452301,183.907791 293.708771,191.751602 291.647644,200.867416 
	C290.545502,205.741928 291.211914,209.240997 295.737274,212.411392 
	C313.753662,225.033386 330.948669,238.734558 347.205566,253.570175 
	C349.739594,255.882629 351.342316,255.524155 353.264465,253.046783 
	C364.220398,238.926361 376.827576,226.327515 389.593384,213.884293 
	C392.334351,211.212570 391.994507,209.243683 388.925629,207.096832 
	C382.374603,202.514069 375.956543,197.741226 368.920349,192.602692 
M316.496429,308.007446 
	C321.054871,298.148163 327.222107,289.236633 333.040985,280.128235 
	C334.916656,277.192230 335.245148,274.946899 332.506866,272.251007 
	C319.631775,259.575195 305.262329,248.867233 289.804840,239.612320 
	C284.622375,236.509399 283.646545,237.184326 283.168152,243.215851 
	C281.626038,262.657898 282.682800,282.148041 282.136597,301.607422 
	C281.772675,314.572998 284.354980,327.051910 287.433990,339.527496 
	C288.514465,343.905334 291.735718,344.005432 294.945984,344.607941 
	C298.097870,345.199432 298.679016,342.671326 299.816589,340.640991 
	C305.673309,330.188263 309.702148,318.806915 316.496429,308.007446 
M365.898682,314.574219 
	C362.168365,309.631226 359.608521,303.752106 354.940765,299.734406 
	C351.332153,301.450531 350.414032,304.527374 348.767639,306.945190 
	C341.463989,317.671234 334.692261,328.733276 328.607697,340.199463 
	C327.126770,342.990234 325.271332,346.601349 329.049591,348.514465 
	C334.042053,351.042419 339.441467,353.098358 345.379791,351.033173 
	C350.051453,349.408569 355.127777,349.074829 359.326263,345.925537 
	C361.359711,344.400269 364.085632,344.718658 366.609741,345.107117 
	C370.341064,345.681366 373.518372,347.436005 376.535583,349.575623 
	C378.548950,351.003357 380.645264,350.958740 382.587097,349.565765 
	C384.842163,347.948120 383.487335,346.008331 382.798401,344.192535 
	C378.804230,333.665466 372.202423,324.617706 365.898682,314.574219 
z"/>
<path fill="#000000" opacity="1.000000" stroke="none" 
	d="
M505.486572,668.674438 
	C461.650116,655.201050 420.552277,636.270081 379.972534,616.047485 
	C342.980072,597.612549 305.466400,580.583435 264.976685,570.809631 
	C216.273529,559.053223 169.499435,565.617188 123.655815,583.694214 
	C119.165794,585.464661 114.718559,587.364075 110.346291,589.406616 
	C106.204239,591.341797 102.186920,593.543945 98.011673,595.681335 
	C97.260368,593.350891 98.888908,592.597229 99.850662,591.637390 
	C118.732918,572.793213 139.680573,556.743042 163.920074,545.369507 
	C188.005661,534.068115 213.400986,528.036865 240.014114,526.533447 
	C272.858063,524.677979 303.628479,532.612915 333.903595,544.316895 
	C367.053223,557.132202 398.443634,573.731750 430.779694,588.287903 
	C470.100250,605.988220 510.381012,620.729004 553.036499,627.944214 
	C586.439331,633.594299 619.991699,636.398193 653.929810,632.263123 
	C673.108704,629.926392 692.222656,627.502625 711.062744,623.179565 
	C731.425842,618.506958 750.826111,610.969543 770.183472,603.305725 
	C787.220459,596.560547 804.067383,589.410522 819.800476,579.901550 
	C821.131836,579.096802 822.528625,578.778198 824.094116,578.947815 
	C846.094299,581.332458 868.097961,583.685364 890.096985,586.081055 
	C891.874084,586.274658 894.152039,586.147461 894.784912,588.234192 
	C895.528259,590.685120 893.346252,592.201172 891.915894,593.664062 
	C881.712646,604.098450 869.922607,612.593750 857.536011,620.115723 
	C822.746094,641.242371 785.579651,656.823914 746.323120,667.723450 
	C717.343384,675.769714 687.975220,681.495239 658.069885,683.937073 
	C627.645386,686.421143 597.207458,685.879089 566.851013,681.767822 
	C546.170166,678.966919 525.933289,674.365051 505.486572,668.674438 
M634.281799,642.100159 
	C633.651672,641.560486 633.080811,640.923828 632.382263,640.495972 
	C624.660950,635.767822 621.067261,636.350647 614.998413,643.108765 
	C613.555298,644.715820 611.831238,645.984009 609.778076,646.875671 
	C606.114380,648.466553 602.532898,650.251953 598.953613,652.029663 
	C597.358948,652.821716 595.254456,653.418884 595.539917,655.764404 
	C595.800720,657.908020 597.820129,658.503235 599.500000,659.142151 
	C600.721497,659.606689 602.076355,659.802490 603.389954,659.930481 
	C616.781860,661.235291 629.945496,659.889954 642.941711,656.515869 
	C645.675598,655.806091 648.033569,654.952942 648.256653,651.549500 
	C648.467957,648.325378 645.993958,647.479675 643.908813,646.141846 
	C641.091980,644.334717 637.276611,645.170776 634.281799,642.100159 
z"/>
<path fill="#000000" opacity="1.000000" stroke="none" 
	d="
M57.406891,376.286255 
	C49.774178,352.149994 62.417694,329.473450 87.844193,320.755066 
	C113.193344,312.063171 138.038528,315.170074 162.677383,323.673737 
	C168.185730,325.574829 173.534195,327.890381 178.701523,330.620361 
	C180.966217,331.816803 181.966507,333.388000 181.000992,335.878174 
	C178.714340,341.775696 176.563126,347.733002 174.051956,353.533997 
	C171.877487,358.557312 170.571960,358.614258 165.820145,355.565399 
	C146.922363,343.440216 126.414062,340.345673 104.609283,345.023102 
	C101.315002,345.729767 98.287033,347.222961 95.707878,349.372070 
	C88.500191,355.378021 87.605034,363.722504 93.713959,371.455322 
	C100.795425,380.419220 109.849190,387.283844 119.017677,393.964813 
	C132.223190,403.587555 145.391647,413.224152 154.677444,427.095459 
	C171.939362,452.881592 164.469101,483.639771 137.630493,499.234253 
	C114.039116,512.941895 89.060890,514.210876 63.227825,508.783417 
	C45.984447,505.160583 29.695461,499.024750 15.476261,488.210022 
	C13.796541,486.932465 12.081642,486.070221 13.962317,483.550598 
	C18.937538,476.885101 23.807259,470.139008 28.613832,463.350525 
	C30.296730,460.973694 31.624765,460.454651 34.172829,462.547638 
	C51.613182,476.873322 71.619286,483.719055 94.258087,482.851257 
	C101.714790,482.565430 108.769592,480.917999 115.419891,477.637756 
	C129.555939,470.665192 133.005081,453.213501 122.805664,440.176086 
	C115.843758,431.277008 106.426781,425.084320 97.817955,418.024963 
	C87.662903,409.697601 76.537491,402.552185 67.812958,392.502106 
	C63.617954,387.669769 59.991756,382.575256 57.406891,376.286255 
z"/>
<path fill="#000000" opacity="1.000000" stroke="none" 
	d="
M614.999512,400.600037 
	C626.338135,400.549591 637.072571,400.918518 647.761475,403.417267 
	C661.457825,406.619141 668.415771,415.569061 670.925293,430.299530 
	C673.012695,442.552002 670.526978,454.421234 663.107483,465.008240 
	C659.131714,470.681366 653.349182,473.875336 647.444885,477.927948 
	C652.281006,482.425476 656.462097,487.083954 659.408203,492.715546 
	C669.231079,511.492126 663.164734,536.400757 645.255798,550.503113 
	C633.757080,559.557739 620.627563,564.231323 606.049438,564.894409 
	C593.552490,565.462830 581.070007,565.122375 568.607178,564.083435 
	C562.638245,563.585815 562.189270,562.907898 563.453552,556.864502 
	C568.699707,531.787964 574.091370,506.740631 579.143372,481.624969 
	C583.734070,458.801880 587.955139,435.904388 592.331787,413.038269 
	C592.456543,412.386261 592.564636,411.718201 592.565979,411.057343 
	C592.591797,398.324829 593.655212,401.043365 603.503540,400.700012 
	C607.165527,400.572357 610.833984,400.627899 614.999512,400.600037 
M604.306396,497.631409 
	C601.973572,509.212097 599.600830,520.784973 597.320435,532.375977 
	C595.453064,541.868225 595.501038,541.869141 604.981323,541.050232 
	C606.306396,540.935852 607.643494,540.965088 608.974487,540.914673 
	C621.683044,540.433350 634.825623,529.272827 636.607422,517.452209 
	C638.769653,503.107788 631.928711,491.694061 617.692627,486.902374 
	C605.588440,482.828247 607.139526,482.914490 605.151001,493.892273 
	C604.973755,494.870941 604.659851,495.824860 604.306396,497.631409 
M612.209595,459.381073 
	C611.018250,465.134796 611.468262,465.719421 617.333008,465.842285 
	C619.662476,465.891113 622.000977,465.970703 624.323120,465.831787 
	C634.368103,465.230896 641.250244,460.176941 644.472595,450.667664 
	C647.215698,442.572693 646.605591,435.009918 640.003113,428.589020 
	C635.222473,423.939819 629.190857,423.997375 623.266846,423.372223 
	C620.054077,423.033203 618.500061,424.240051 617.943237,427.640625 
	C616.250793,437.976624 614.215454,448.256500 612.209595,459.381073 
z"/>
<path fill="#000000" opacity="1.000000" stroke="none" 
	d="
M327.338470,382.029785 
	C320.532684,417.588287 312.036194,452.334045 304.069641,487.196533 
	C302.958649,492.058380 301.296295,496.791809 300.063141,501.629028 
	C299.198700,505.019806 297.067078,505.700684 294.030975,505.004761 
	C289.652039,504.001068 285.303253,502.811676 280.879456,502.074005 
	C276.749512,501.385345 275.741882,499.374939 276.653778,495.437958 
	C280.258026,479.877777 283.677704,464.274780 287.166321,448.687805 
	C287.557129,446.941833 288.278351,445.208252 287.228851,442.987885 
	C283.247986,445.932983 280.235748,449.607239 277.032898,453.092743 
	C265.657410,465.472076 254.354660,477.921204 242.801575,490.133148 
	C238.001480,495.206970 237.017059,494.982788 234.091003,488.802063 
	C225.611237,470.890228 218.269608,452.503845 211.738632,433.794891 
	C211.307510,432.559906 211.191696,431.195404 209.428268,430.033936 
	C208.047348,434.858673 206.711609,439.500549 205.390289,444.146545 
	C200.203568,462.383759 194.903473,480.590210 189.928543,498.885071 
	C188.820694,502.959106 186.789322,504.292389 182.842194,503.904572 
	C178.372589,503.465393 173.867752,503.395203 169.391754,503.008270 
	C163.547241,502.502960 162.267761,500.812531 163.913528,495.229706 
	C167.018173,484.698120 170.497635,474.276154 173.548248,463.729645 
	C179.371109,443.598969 185.079529,423.434296 190.686951,403.242523 
	C194.649597,388.973450 198.464523,374.664215 203.236877,360.636444 
	C203.705124,359.260162 204.481415,357.988678 205.717712,355.411652 
	C219.319168,387.571838 232.468002,418.661835 245.902985,450.428406 
	C251.462784,447.050995 254.660706,442.513550 258.316742,438.622742 
	C278.835754,416.786102 299.167694,394.773621 319.578400,372.835052 
	C320.937500,371.374207 322.377075,369.980713 323.857880,368.642914 
	C325.075897,367.542572 326.456024,366.034180 328.191315,367.162750 
	C329.798553,368.207977 329.315826,370.137878 329.047028,371.779144 
	C328.510406,375.055786 327.928040,378.324982 327.338470,382.029785 
z"/>
<path fill="#000000" opacity="1.000000" stroke="none" 
	d="
M593.667480,597.740112 
	C597.784546,596.555725 592.400635,594.978943 594.153381,593.789246 
	C594.823120,592.338196 596.339050,592.263184 597.401611,591.551025 
	C598.270874,590.125671 595.869934,589.270142 596.858948,587.831543 
	C597.718262,586.550293 599.166443,586.823120 600.434814,586.749695 
	C613.076965,586.018250 625.742676,586.161926 638.390930,585.810181 
	C665.822815,585.047119 693.241821,583.803955 720.661316,582.645142 
	C723.139832,582.540344 726.896729,582.704895 726.381042,578.840515 
	C725.932617,575.480713 725.445679,571.154907 720.242493,571.173035 
	C718.410828,571.179443 716.415222,570.768005 714.777527,571.347473 
	C709.154602,573.337341 707.906067,570.230591 707.124390,565.662415 
	C705.248230,554.698792 705.146545,554.711853 694.234497,555.320312 
	C688.583374,555.635437 682.936462,556.103821 677.281372,556.239624 
	C674.199463,556.313599 672.328186,557.630493 671.067810,560.318115 
	C669.725037,563.181396 667.894958,565.851501 666.841248,568.806946 
	C665.085815,573.730347 662.090454,575.554260 656.735840,575.463074 
	C647.733276,575.309814 647.834167,575.726135 650.527283,567.183533 
	C654.607910,554.239746 661.333374,542.498840 667.099060,530.327820 
	C680.502014,502.034729 694.067566,473.818634 707.606689,445.590271 
	C708.568481,443.584930 708.906921,441.003815 712.422974,440.034973 
	C715.935730,480.764252 719.602051,521.275391 724.663025,561.721985 
	C725.252197,561.531860 725.691223,561.525085 725.788696,561.339233 
	C729.718201,553.839294 729.653687,554.097107 738.049194,556.055969 
	C748.183716,558.420654 757.529541,556.904541 765.320374,549.233704 
	C772.900391,541.770386 774.655762,525.677917 763.421204,518.672974 
	C759.611267,516.297424 755.906982,513.747131 752.214294,511.190125 
	C743.873657,505.414612 740.963257,497.490051 743.065552,487.776886 
	C748.446899,462.913208 776.727051,453.970764 793.992371,460.866333 
	C796.407593,461.830902 797.687561,463.017853 796.414307,465.717590 
	C795.992065,466.612793 795.812378,467.620758 795.502808,468.571014 
	C792.954468,476.394226 792.956421,476.365204 784.714233,475.389221 
	C778.598450,474.665039 772.726257,475.299316 767.482605,478.895721 
	C759.853943,484.127869 759.487732,491.381073 766.317139,497.544495 
	C773.442749,503.975250 781.794861,509.186066 786.449463,518.108887 
	C788.217163,521.497375 788.789978,524.797546 788.588135,528.617004 
	C787.582031,547.653259 779.690979,562.473999 762.922852,572.183960 
	C754.858704,576.853638 746.265015,579.024048 737.090454,577.100220 
	C732.346313,576.105286 730.215698,577.745605 729.324646,582.114014 
	C728.959412,583.904297 727.959900,585.649475 727.960632,587.414795 
	C727.963196,593.619446 724.526550,595.414185 718.915039,595.932190 
	C698.216248,597.842896 677.564331,600.262390 656.864319,602.156982 
	C638.303284,603.855835 619.700745,605.615601 601.063904,605.544861 
	C581.158020,605.469299 561.004150,606.723083 541.711304,600.024475 
	C535.353760,597.817078 528.911926,595.616760 523.309143,591.226440 
	C534.998108,592.240967 546.322693,595.281799 557.898010,596.559937 
	C569.676025,597.860352 581.486267,598.223022 593.667480,597.740112 
M692.190674,514.663635 
	C689.062866,523.291138 684.020142,531.180725 681.670105,540.614990 
	C688.606323,541.387756 694.797607,540.496765 700.965210,539.186401 
	C703.584778,538.629822 703.715088,536.777405 703.535156,534.603882 
	C703.151611,529.969971 703.093140,525.299561 702.506531,520.694336 
	C701.636475,513.863770 701.742859,506.891846 698.885071,499.803558 
	C696.749878,504.521088 694.614746,509.238617 692.190674,514.663635 
z"/>
<path fill="#000000" opacity="1.000000" stroke="none" 
	d="
M1011.243042,401.017151 
	C1014.072327,404.236725 1011.553040,407.192352 1011.166870,410.105652 
	C1009.265930,424.447968 1009.132690,424.479828 994.722229,424.097931 
	C987.400940,423.903961 980.068665,423.698608 972.773621,423.103485 
	C968.699890,422.771118 966.801880,423.785980 966.021790,428.140106 
	C960.158020,460.870605 954.087830,493.564392 947.999634,526.254272 
	C945.380310,540.318298 942.623047,554.357422 939.812744,568.384705 
	C938.497803,574.947815 937.966125,575.292908 931.548401,574.219177 
	C923.346741,572.847046 915.157043,571.506287 906.815491,571.249207 
	C903.950928,571.160889 900.954346,570.875671 898.477417,567.850464 
	C901.886414,567.850464 904.651672,567.611633 907.358398,567.907776 
	C911.189087,568.326965 912.762756,566.604187 913.380188,563.040100 
	C916.390442,545.663879 919.435730,528.292969 922.621277,510.948181 
	C926.647339,489.027161 930.862976,467.140961 934.904785,445.222748 
	C936.080322,438.847961 936.887329,432.406036 937.967834,426.012543 
	C938.532654,422.670532 937.613831,421.250641 933.898071,421.138214 
	C916.928650,420.624695 899.967773,419.831665 883.003296,419.150909 
	C877.160400,418.916412 876.849060,418.507538 877.506287,412.626526 
	C877.894287,409.154388 878.148926,405.664368 878.358521,402.176086 
	C878.597046,398.207550 880.558655,396.780823 884.545410,396.957153 
	C896.188904,397.472015 907.852661,397.534424 919.494751,398.071869 
	C943.450195,399.177795 967.419800,399.619446 991.392822,400.030823 
	C997.879089,400.142120 1004.359436,400.597839 1011.243042,401.017151 
z"/>
<path fill="#000000" opacity="1.000000" stroke="none" 
	d="
M414.533600,460.643188 
	C416.795441,452.032471 419.020599,443.843811 421.105103,435.619537 
	C421.783600,432.942413 423.163452,431.500610 425.997711,431.842163 
	C441.969025,433.766785 458.227234,433.801392 473.360229,440.666901 
	C486.924866,446.820831 495.025299,459.102051 495.494080,474.025177 
	C495.951080,488.573029 491.323090,500.784027 481.095856,511.020844 
	C476.901184,515.219482 472.086884,518.370972 466.509521,520.400818 
	C463.877411,521.358765 461.297760,522.460876 458.007751,523.771179 
	C467.579956,542.460449 476.363739,561.003723 483.143158,580.276184 
	C482.531219,580.751343 482.216217,581.165039 482.034027,581.113098 
	C473.236267,578.604004 464.749176,575.302063 456.735260,570.870544 
	C455.097046,569.964722 454.229095,568.275513 453.436523,566.578918 
	C447.234467,553.302979 440.809448,540.126282 434.896667,526.723389 
	C433.388275,523.304260 430.876434,523.013550 428.200287,522.650574 
	C425.069611,522.226074 425.011749,525.116272 424.536682,527.059875 
	C422.998322,533.353577 421.548370,539.674988 420.313934,546.034241 
	C419.686768,549.265198 418.103638,550.711975 414.844116,550.328491 
	C410.213959,549.783691 405.587341,549.201111 400.949066,548.735840 
	C397.690033,548.408813 396.981232,546.790955 397.363129,543.642273 
	C399.210663,528.410889 402.714447,513.508423 406.000519,498.561951 
	C408.752472,486.044800 411.623810,473.553925 414.533600,460.643188 
M460.166016,459.236694 
	C455.550751,456.819580 450.520935,455.676514 445.506866,454.499176 
	C443.353882,453.993652 441.641205,454.155914 441.027557,456.907318 
	C437.850800,471.150604 434.616974,485.381683 431.299286,499.592773 
	C430.411530,503.395416 431.814087,504.730713 435.544495,504.774536 
	C441.251221,504.841522 446.911316,504.284515 452.258728,502.489380 
	C462.301208,499.118134 468.917328,492.331909 470.650787,481.575958 
	C472.164856,472.181183 469.625916,464.444244 460.166016,459.236694 
z"/>
<path fill="#000000" opacity="1.000000" stroke="none" 
	d="
M543.454163,472.421692 
	C538.182434,497.752838 533.839661,522.833801 528.280884,547.677551 
	C525.197876,561.456238 522.737000,575.382202 520.329773,589.299500 
	C519.479248,594.216797 517.492798,596.294983 512.383545,595.373535 
	C507.970612,594.577698 503.438568,594.458679 499.008087,593.739258 
	C493.295807,592.811584 491.964264,590.848999 493.067230,585.085754 
	C496.066101,569.415527 499.034058,553.737427 502.259216,538.112976 
	C508.579498,507.493591 515.091797,476.913849 521.464294,446.305145 
	C522.914185,439.341187 522.636658,439.143524 515.321960,438.938049 
	C507.503906,438.718445 499.600037,439.088776 491.893463,438.033997 
	C483.526886,436.888824 475.279205,434.943909 466.762939,434.933411 
	C464.632111,434.930786 463.901093,433.591583 464.298553,431.545258 
	C464.774200,429.096466 465.295807,426.650299 465.621918,424.179810 
	C467.037628,413.454651 467.027863,413.626007 478.011383,414.051697 
	C498.963379,414.863739 519.926086,415.393402 540.881653,416.118256 
	C555.848816,416.635956 570.810486,417.310577 585.777161,417.842468 
	C588.586426,417.942261 589.764221,419.119751 589.253052,421.899994 
	C588.230225,427.463287 587.175598,433.020996 586.189392,438.590820 
	C585.689331,441.414917 583.990601,441.708954 581.447449,441.519836 
	C573.318848,440.915497 565.159546,440.718262 557.032776,440.094879 
	C552.650269,439.758728 550.279053,441.102478 549.388062,445.706329 
	C547.682495,454.519470 545.498169,463.239929 543.454163,472.421692 
z"/>
<path fill="#000000" opacity="1.000000" stroke="none" 
	d="
M810.312744,439.439087 
	C812.779907,427.280853 815.235474,415.554047 817.417114,403.776520 
	C817.988770,400.690643 819.282776,399.462372 822.366882,399.683777 
	C827.345520,400.041199 832.335022,400.345917 837.323975,400.427704 
	C840.738953,400.483673 840.959229,401.973846 840.398438,404.901581 
	C835.892700,428.422791 832.131470,452.097839 825.516785,475.173004 
	C825.203491,476.266052 824.753296,477.416016 825.885254,478.956329 
	C830.927490,475.432922 834.228882,470.170258 838.721313,466.170135 
	C844.685181,460.859680 850.531982,455.416473 856.376343,449.973724 
	C858.741394,447.771179 861.212524,446.478271 864.440857,448.052063 
	C864.880127,448.266266 865.433105,448.240723 865.884521,448.438019 
	C868.635742,449.640472 873.076111,447.148682 874.245911,450.968903 
	C875.207397,454.108887 871.664856,456.493011 870.010681,459.060150 
	C865.664246,465.805389 859.682617,471.211426 854.203369,477.015533 
	C849.637390,481.852325 845.096375,486.721191 840.337952,491.364380 
	C837.853333,493.788757 838.739746,496.226440 839.630310,498.708160 
	C844.574646,512.485657 849.565369,526.246765 854.607056,539.988892 
	C855.710388,542.996338 856.005737,546.106934 856.530273,549.221191 
	C857.234192,553.400635 855.005981,554.849976 851.699829,555.114929 
	C847.562012,555.446594 843.380249,555.204529 839.218384,555.268372 
	C836.076050,555.316589 834.941833,553.300049 834.171814,550.707031 
	C830.430481,538.108398 826.644287,525.523010 822.877258,512.931946 
	C822.595886,511.991730 822.585632,510.917908 821.221619,510.179932 
	C817.851929,511.384247 816.665344,514.507263 815.865601,517.669250 
	C813.216064,528.145569 810.517395,538.619446 808.300415,549.191284 
	C807.146057,554.696045 804.312500,556.650024 798.902344,556.314636 
	C794.752441,556.057434 790.199463,554.926758 786.438599,559.074097 
	C794.897461,519.288025 801.455200,479.355896 810.312744,439.439087 
z"/>
<path fill="#000000" opacity="1.000000" stroke="none" 
	d="
M372.971100,520.434387 
	C367.182220,518.981140 367.293610,513.885742 366.003967,510.043976 
	C362.740082,500.320953 362.940796,500.251343 352.722626,499.346466 
	C345.601776,498.715851 338.476746,498.129395 331.361176,497.444336 
	C329.159393,497.232361 327.424438,497.776855 326.215302,499.692169 
	C325.771210,500.395660 325.282440,501.072296 324.862610,501.789612 
	C317.324127,514.669800 320.471069,512.482605 305.543884,508.560486 
	C302.108917,507.657928 301.435760,506.097961 303.039795,502.795227 
	C309.148987,490.216034 315.430176,477.734467 322.111237,465.444824 
	C336.337921,439.275208 350.414246,413.023895 364.558868,386.809692 
	C365.392792,385.264221 365.782837,383.331085 367.623505,382.744385 
	C368.812897,383.135956 369.087524,383.919189 369.147095,384.766907 
	C371.036835,411.668793 375.953918,438.185242 379.455780,464.879791 
	C381.659241,481.676483 384.654572,498.373962 387.547363,515.072144 
	C388.229645,519.010437 386.803223,520.214844 383.278046,520.442993 
	C379.973450,520.656860 376.689484,521.605652 372.971100,520.434387 
M347.634766,459.068329 
	C344.593628,464.783478 341.570923,470.508545 338.503479,476.209534 
	C336.995361,479.012543 337.525360,480.625549 340.936493,480.818024 
	C345.749115,481.089569 350.564331,481.342041 355.368805,481.723846 
	C359.464264,482.049316 361.172943,480.565765 360.561829,476.244141 
	C359.281708,467.191650 358.302795,458.096863 357.134247,449.027954 
	C356.958069,447.660919 357.426666,445.924164 355.141083,444.987183 
	C352.765228,449.445587 350.375488,453.930023 347.634766,459.068329 
z"/>
<path fill="#000000" opacity="1.000000" stroke="none" 
	d="
M841.939697,289.320679 
	C842.367065,288.171173 842.512085,287.242004 843.039795,286.659302 
	C853.704407,274.881927 854.447937,259.359650 858.654846,245.173904 
	C863.102722,230.175735 870.639221,217.896942 885.468933,210.987564 
	C913.994324,197.697144 949.580811,211.500412 961.405273,240.680664 
	C970.003662,261.899536 968.259766,281.797699 953.094116,299.550842 
	C947.774658,305.777924 941.168457,310.879028 933.268494,313.452362 
	C918.642334,318.216736 905.532715,325.501190 894.164734,335.804077 
	C891.090698,338.590088 888.967651,338.788116 885.732117,335.940765 
	C872.479797,324.278625 859.035583,312.832886 845.569641,301.416412 
	C841.770447,298.195374 839.706116,294.685516 841.939697,289.320679 
M861.327454,295.845917 
	C862.076721,297.951538 863.492065,299.567596 865.156433,300.985138 
	C871.736816,306.589478 878.462219,312.033447 884.856018,317.842651 
	C888.038879,320.734558 890.639832,320.307190 893.449890,317.756836 
	C896.670105,314.834167 900.274475,312.531677 904.015930,310.305450 
	C911.819946,305.662018 920.410400,303.010712 928.765869,299.734161 
	C945.117737,293.321930 954.692322,276.845245 952.346191,259.416534 
	C950.061218,242.442459 940.965271,230.265656 926.037170,222.328613 
	C910.858643,214.258423 890.895996,218.066605 880.721375,231.131180 
	C874.799622,238.734879 871.839233,247.792206 869.360718,257.007324 
	C867.203003,265.029785 866.537292,273.478638 863.159546,281.120087 
	C861.124817,285.723145 859.948425,290.160004 861.327454,295.845917 
z"/>
<path fill="#000000" opacity="1.000000" stroke="none" 
	d="
M903.679688,466.395752 
	C890.824768,465.873810 890.622620,466.144806 889.243042,478.460663 
	C888.745178,482.905487 887.849182,487.332214 886.771240,491.676971 
	C885.945068,495.006775 887.331604,495.950317 890.249573,495.933655 
	C895.576599,495.903259 900.904053,495.908813 906.230530,495.837128 
	C910.309875,495.782257 911.446167,497.532196 910.459229,501.502441 
	C907.807251,512.170227 907.911133,512.240295 896.799805,512.199280 
	C893.314575,512.186462 889.813293,512.020569 886.351807,511.634216 
	C883.861206,511.356171 882.600586,512.132141 882.171753,514.617432 
	C881.013123,521.332275 879.697083,528.020142 878.565613,534.739258 
	C877.982178,538.204285 880.553894,538.531494 882.974792,538.575378 
	C889.632080,538.696472 896.295105,538.834595 902.949158,538.678650 
	C907.245789,538.578003 908.505554,540.007874 907.580994,544.358032 
	C904.615601,558.309021 907.692627,556.029053 893.550964,556.173584 
	C883.730042,556.273926 873.906860,556.259277 864.085510,556.188416 
	C858.211121,556.146057 858.318420,555.507629 858.979736,549.806763 
	C860.821960,533.927979 863.750061,518.245422 866.740173,502.570068 
	C869.541382,487.885040 872.434326,473.213989 875.576782,458.599091 
	C877.138855,451.334045 879.185669,449.995209 886.684143,449.953247 
	C897.670715,449.891785 908.658630,449.976105 919.644043,449.841827 
	C923.236816,449.797913 924.198669,450.943207 923.581665,454.617279 
	C921.396240,467.631287 920.924316,468.119690 907.615112,466.795166 
	C906.456726,466.679901 905.301270,466.535736 903.679688,466.395752 
z"/>
<path fill="#000000" opacity="1.000000" stroke="none" 
	d="
M871.020264,349.981262 
	C859.100342,339.100525 847.585388,328.285248 834.754822,319.020721 
	C832.657593,317.506348 832.002563,316.058868 833.422180,313.603333 
	C835.065491,310.760834 836.281372,307.671173 837.640625,304.778748 
	C839.510437,304.156189 840.717041,305.129272 841.730469,306.224091 
	C853.410339,318.841278 867.748779,328.410461 880.334717,339.982788 
	C882.339905,341.826447 885.912292,343.380066 882.406921,347.065399 
	C876.990723,352.759735 874.814209,354.509796 871.020264,349.981262 
z"/>
<path fill="#000000" opacity="1.000000" stroke="none" 
	d="
M858.530640,360.421936 
	C854.961914,357.145020 851.504089,354.246124 848.357788,351.041351 
	C844.942383,347.562378 842.504272,348.279053 840.092529,352.122467 
	C838.903870,354.016754 837.928894,356.329956 834.821838,356.994720 
	C830.776428,352.121979 826.797607,346.748199 825.207947,340.579620 
	C823.809143,335.151886 827.191833,329.966888 830.091736,325.342682 
	C831.275269,323.455475 833.109985,325.235809 834.383179,326.186157 
	C842.010803,331.879700 848.578247,338.764069 855.567566,345.174408 
	C858.760132,348.102509 861.822815,351.174316 865.057495,354.053894 
	C868.109436,356.770844 869.412964,359.494141 865.968079,362.843781 
	C862.214905,366.493073 860.982971,362.018097 858.530640,360.421936 
z"/>
<path fill="#000000" opacity="1.000000" stroke="none" 
	d="
M710.253174,606.371216 
	C712.023926,606.169312 713.490662,605.219910 715.588928,607.545776 
	C669.971252,620.765198 624.241394,620.884521 578.148132,616.555115 
	C579.572815,614.134705 581.735596,614.617432 583.713501,614.660461 
	C598.356079,614.978943 613.000793,615.713562 627.639221,615.598633 
	C655.339355,615.381165 682.709351,611.771851 710.253174,606.371216 
z"/>
<path fill="#000000" opacity="1.000000" stroke="none" 
	d="
M897.475220,185.655792 
	C898.065491,187.814651 898.548096,189.576508 898.939880,191.358337 
	C899.495056,193.883774 899.067993,196.300781 896.363342,197.045044 
	C893.623962,197.798859 892.610718,195.499771 891.974121,193.343506 
	C889.806641,186.001968 888.865173,178.410812 887.476440,170.909470 
	C886.357849,164.867111 885.035400,158.862305 883.937744,152.816422 
	C883.550598,150.684036 883.290955,147.966675 885.950073,147.339035 
	C889.011841,146.616364 889.766113,149.439270 890.252502,151.681091 
	C892.678406,162.861938 894.981018,174.069534 897.475220,185.655792 
z"/>
<path fill="#000000" opacity="1.000000" stroke="none" 
	d="
M1010.404297,301.801086 
	C1005.941895,301.429016 1002.349609,299.750610 998.644043,298.255341 
	C991.280884,295.284088 983.779236,292.657074 976.349182,289.849915 
	C974.663513,289.213013 972.816345,288.766266 971.878723,286.939880 
	C971.266479,285.747345 970.560608,284.552612 971.388245,283.206421 
	C972.275757,281.762878 973.568787,282.072327 974.916809,282.437469 
	C988.559387,286.132599 1001.439575,291.955109 1014.702637,296.707703 
	C1016.100952,297.208771 1017.689575,298.256104 1016.876404,300.033173 
	C1015.660950,302.689209 1013.153137,302.284821 1010.404297,301.801086 
z"/>
<path fill="#000000" opacity="1.000000" stroke="none" 
	d="
M943.517212,164.419983 
	C941.186279,174.914139 938.086060,184.738922 934.130493,194.289627 
	C933.561951,195.662399 932.857117,197.017700 931.987976,198.216187 
	C931.082947,199.464142 929.836304,200.426895 928.133789,199.587479 
	C926.359741,198.712784 926.619141,197.283310 927.148560,195.738510 
	C930.331055,186.450729 933.233765,177.057205 936.738892,167.893677 
	C938.713562,162.731003 940.152405,157.481888 941.487793,152.158615 
	C942.012085,150.068390 942.733032,147.446930 945.692383,148.546951 
	C948.697327,149.663940 947.178467,151.899719 946.472351,153.975815 
	C945.352905,157.267395 944.557068,160.669052 943.517212,164.419983 
z"/>
<path fill="#000000" opacity="1.000000" stroke="none" 
	d="
M1019.907349,239.846146 
	C1015.327271,244.397018 1009.383057,244.999008 1003.805847,246.187744 
	C995.357300,247.988449 986.782349,249.204239 978.249023,250.594208 
	C976.227844,250.923447 973.618286,251.959106 973.059509,248.681366 
	C972.530884,245.581024 974.970825,244.636276 977.320374,244.190048 
	C987.120728,242.328659 996.946777,240.602249 1006.763245,238.825577 
	C1009.545715,238.321991 1012.317383,237.745346 1015.113525,237.334732 
	C1017.103821,237.042450 1019.223267,236.754684 1019.907349,239.846146 
z"/>
<path fill="#000000" opacity="1.000000" stroke="none" 
	d="
M863.704102,203.348846 
	C865.394836,205.568848 866.897888,207.949432 864.723206,209.823288 
	C862.313110,211.899902 860.434021,209.331848 858.952271,207.736786 
	C851.169983,199.359146 843.467529,190.906219 835.834961,182.391953 
	C834.529907,180.936127 833.636047,179.091156 832.665527,177.362350 
	C831.855957,175.920013 831.818298,174.412811 833.354675,173.407806 
	C834.948669,172.365189 836.627991,172.506165 837.781433,174.077850 
	C845.456055,184.535156 855.205811,193.145477 863.704102,203.348846 
z"/>
<path fill="#000000" opacity="1.000000" stroke="none" 
	d="
M970.450073,199.434998 
	C975.938965,194.839020 981.139587,190.446136 986.365417,186.083511 
	C988.888550,183.977142 991.303772,183.346619 992.957336,186.203430 
	C987.995178,191.556503 983.291321,196.828751 978.364746,201.883881 
	C974.303833,206.050705 969.982361,209.963867 965.768127,213.980820 
	C965.166260,214.554504 964.518799,215.080490 963.890808,215.626617 
	C962.143311,217.146164 959.942139,218.321243 958.068481,216.677277 
	C955.914062,214.787003 957.734070,212.693787 959.035645,211.032852 
	C960.362000,209.340332 961.914978,207.818085 963.432434,206.284317 
	C965.649231,204.043579 967.922791,201.859039 970.450073,199.434998 
z"/>
<path fill="#000000" opacity="1.000000" stroke="none" 
	d="
M129.278870,354.778381 
	C126.805054,354.095215 124.328178,354.647461 122.083168,352.450256 
	C125.755112,350.880005 128.855499,351.692963 131.754562,352.384552 
	C141.269592,354.654388 150.845886,356.646606 159.109253,362.580719 
	C163.843887,365.980774 166.224197,368.651550 166.828934,375.476532 
	C157.208694,363.414062 144.284897,357.564941 129.278870,354.778381 
z"/>
<path fill="#000000" opacity="1.000000" stroke="none" 
	d="
M841.416504,566.333008 
	C842.994629,566.850708 844.455750,566.491150 845.973450,568.098633 
	C841.035583,570.072449 836.589722,569.667908 832.298889,567.427734 
	C829.438660,565.934448 829.921265,563.270447 830.130981,559.202271 
	C833.117615,564.359192 836.819275,565.799622 841.416504,566.333008 
z"/>
<path fill="#000000" opacity="1.000000" stroke="none" 
	d="
M769.230042,589.311279 
	C766.348938,590.314575 764.090210,592.266418 759.694275,591.499084 
	C765.510010,586.945190 771.158813,585.697876 776.974792,584.782837 
	C775.238037,587.614258 772.083008,587.819946 769.230042,589.311279 
z"/>
<path fill="#000000" opacity="1.000000" stroke="none" 
	d="
M107.134148,354.009247 
	C109.528625,351.676056 112.229416,351.385986 116.084518,352.323578 
	C112.798256,354.333618 110.256088,355.479614 107.134148,354.009247 
z"/>
</svg>